<svg viewBox="0 0 24 24" width="24" height="24" fill="var(--color-primary)"><path fill-rule="evenodd" clip-rule="evenodd" d="M14.6348 2.8544C13.0393 1.79072 10.9607 1.79072 9.36517 2.8544L4.36517 6.18773C3.04373 7.0687 2.25 8.5518 2.25 10.14V16.9992C2.25 19.6226 4.37665 21.7492 7 21.7492H17C19.6234 21.7492 21.75 19.6226 21.75 16.9992V10.14C21.75 8.5518 20.9563 7.0687 19.6348 6.18773L14.6348 2.8544ZM15.8452 15.3025C15.5938 14.9746 15.1249 14.9119 14.7963 15.1617L14.7917 15.165C14.7862 15.1691 14.7758 15.1765 14.7609 15.187C14.7309 15.2078 14.6825 15.2403 14.6173 15.2807C14.4865 15.3616 14.2897 15.4728 14.0384 15.5849C13.5333 15.8102 12.8261 16.0309 12 16.0309C11.174 16.0309 10.4668 15.8102 9.96168 15.5849C9.71036 15.4728 9.51358 15.3616 9.38278 15.2807C9.31754 15.2403 9.2692 15.2078 9.23921 15.187C9.22424 15.1765 9.21388 15.1691 9.20834 15.165L9.20381 15.1617C8.87522 14.9119 8.40623 14.9746 8.15485 15.3025C7.90282 15.6312 7.96498 16.102 8.29369 16.354L8.75004 15.7588C8.29369 16.354 8.29456 16.3547 8.29456 16.3547L8.29556 16.3554L8.29793 16.3572L8.30417 16.3619L8.32261 16.3756C8.33753 16.3865 8.35769 16.401 8.38291 16.4185C8.4333 16.4536 8.50408 16.5009 8.59377 16.5564C8.77282 16.6671 9.02911 16.8114 9.35067 16.9548C9.99132 17.2406 10.9091 17.5309 12 17.5309C13.091 17.5309 14.0088 17.2406 14.6494 16.9548C14.971 16.8114 15.2273 16.6671 15.4063 16.5564C15.496 16.5009 15.5668 16.4536 15.6172 16.4185C15.6424 16.401 15.6625 16.3865 15.6775 16.3756L15.6959 16.3619L15.7021 16.3572L15.7045 16.3554L15.7055 16.3547L15.7064 16.354C16.0351 16.102 16.0973 15.6312 15.8452 15.3025Z"></path></svg>