<svg  viewBox="0 0 24 24" width="20" height="20" fill="var(--color-icon-3)"><path d="M10.8995 3.5376C6.82583 3.5376 3.52344 6.83999 3.52344 10.9137C3.52344 14.9874 6.82583 18.2898 10.8995 18.2898C14.9733 18.2898 18.2756 14.9874 18.2756 10.9137C18.2756 6.83999 14.9733 3.5376 10.8995 3.5376ZM2.02344 10.9137C2.02344 6.01156 5.9974 2.0376 10.8995 2.0376C15.8017 2.0376 19.7756 6.01156 19.7756 10.9137C19.7756 15.8158 15.8017 19.7898 10.8995 19.7898C5.9974 19.7898 2.02344 15.8158 2.02344 10.9137Z"></path><path d="M19.227 20.6032L16.0809 17.4574C15.788 17.1645 15.7879 16.6896 16.0808 16.3967C16.3737 16.1038 16.8486 16.1038 17.1415 16.3967L20.2876 19.5425C20.5805 19.8354 20.5805 20.3102 20.2877 20.6031C19.9948 20.8961 19.5199 20.8961 19.227 20.6032Z"></path></svg>